<?xml version="1.0" encoding="utf-8"?>
<!-- Generator: Adobe Illustrator 24.1.1, SVG Export Plug-In . SVG Version: 6.00 Build 0)  -->
<svg version="1.1" id="Layer_1" xmlns="http://www.w3.org/2000/svg" xmlns:xlink="http://www.w3.org/1999/xlink" x="0px" y="0px"
	 viewBox="0 0 512 512" style="enable-background:new 0 0 512 512;" xml:space="preserve">
<style type="text/css">
	.st0{fill:#6F1EC1;}
	.st1{fill:#FFFFFF;}
	.st2{fill-rule:evenodd;clip-rule:evenodd;fill:#FFFFFF;}
</style>
<rect class="st0" width="512" height="512"/>
<path class="st1" d="M338.5,167.3l-28.3,109.1h23.6c11.4,0,21.4-7.8,24.2-18.8l23.5-90.3L338.5,167.3z"/>
<path class="st2" d="M324.4,291.8c14.6,0,26.5,11.8,26.5,26.5s-11.8,26.5-26.5,26.5s-26.5-11.8-26.5-26.5S309.7,291.8,324.4,291.8
	L324.4,291.8z"/>
<g>
	<path class="st1" d="M126.3,344.3V165.4h66.5c31.8,0,53.2,12.3,53.2,46.5c0,16.1-5.2,29.2-19.7,36.5v0.5
		c25.6,3.3,36.5,20.6,36.5,45.6c0,37.5-32,49.8-64.8,49.8H126.3z M172.8,235.6h5.2c12.3,0,25.2-2.1,25.2-17.3
		c0-16.4-14.5-17.3-27.1-17.3h-3.3V235.6z M172.8,308.7h5.9c13.8,0,37,0.7,37-19c0-21.6-23-19.5-38.2-19.5h-4.7V308.7z"/>
</g>
</svg>
