<?xml version="1.0" encoding="utf-8"?>
<!-- Generator: Adobe Illustrator 24.1.1, SVG Export Plug-In . SVG Version: 6.00 Build 0)  -->
<svg version="1.1" id="Layer_1" xmlns="http://www.w3.org/2000/svg" xmlns:xlink="http://www.w3.org/1999/xlink" x="0px" y="0px"
	 viewBox="0 0 239.5 177.6" style="enable-background:new 0 0 239.5 177.6;" xml:space="preserve">
<style type="text/css">
	.st0{fill:#FFFFFF;}
	.st1{fill-rule:evenodd;clip-rule:evenodd;fill:#FFFFFF;}
</style>
<path class="st0" d="M196.5,0l-28.3,109.1h23.6c11.4,0,21.4-7.7,24.3-18.8L239.5,0H196.5z"/>
<path class="st1" d="M182.3,124.5c14.6,0,26.5,11.8,26.5,26.5c0,14.6-11.8,26.5-26.5,26.5c-14.6,0-26.5-11.8-26.5-26.5c0,0,0,0,0,0
	C155.9,136.4,167.7,124.6,182.3,124.5z"/>
<g>
	<path class="st0" d="M0,177.6V0h66c31.6,0,52.8,12.2,52.8,46.2c0,16-5.2,29-19.6,36.2v0.5c25.4,3.3,36.2,20.4,36.2,45.3
		c0,37.2-31.8,49.4-64.3,49.4H0z M46.2,69.7h5.2c12.2,0,25-2.1,25-17.2c0-16.3-14.4-17.2-26.9-17.2h-3.3L46.2,69.7L46.2,69.7z
		 M46.2,142.2H52c13.7,0,36.7,0.7,36.7-18.9c0-21.4-22.8-19.4-37.9-19.4h-4.7V142.2z"/>
</g>
</svg>
