<svg xmlns="http://www.w3.org/2000/svg" viewBox="0 0 105.98 110.69"><defs><style>.cls-1{fill:#f7a827;}</style></defs><g id="Layer_2" data-name="Layer 2"><g id="OBJECTS"><path class="cls-1" d="M0,58.64a36.92,36.92,0,0,0,22.63,34,39.47,39.47,0,0,1,19.46,18h0l10.7-21.18H40.51a1,1,0,1,1,0-2.05H62.74A25.69,25.69,0,0,0,88.42,61.77V59.38H69.74v-.06A38.46,38.46,0,0,0,106,21V14.22H74.56A30.2,30.2,0,0,0,44.44,44.33v2.4a3.77,3.77,0,0,1-3.76,3.77h0a3.77,3.77,0,0,1-3.77-3.77V22h2.64a11,11,0,1,0-8-18.47A15.86,15.86,0,0,1,20,8.51a6.93,6.93,0,0,0-6.92,5.58,6.74,6.74,0,0,0,3.42,7L10.94,24l3.21,1.64L8.3,28.73a5.33,5.33,0,0,0-2.77,5.88,5.13,5.13,0,0,0,1.4,2.51A36.72,36.72,0,0,0,0,58.64ZM20,21a1.54,1.54,0,1,1,1.54,1.54A1.54,1.54,0,0,1,20,21Z"/></g></g></svg>