<?xml version="1.0" encoding="utf-8"?>
<!-- Generator: Adobe Illustrator 24.1.1, SVG Export Plug-In . SVG Version: 6.00 Build 0)  -->
<svg version="1.1" id="Layer_1" xmlns="http://www.w3.org/2000/svg" xmlns:xlink="http://www.w3.org/1999/xlink" x="0px" y="0px"
	 viewBox="0 0 512 512" style="enable-background:new 0 0 512 512;" xml:space="preserve">
<style type="text/css">
	.st0{fill:#008CFF;}
	.st1{fill:#FFFFFF;}
	.st2{fill-rule:evenodd;clip-rule:evenodd;fill:#FFFFFF;}
	.st3{fill:#ECECEC;}
	.st4{fill:#17245F;}
	.st5{fill-rule:evenodd;clip-rule:evenodd;fill:#17245F;}
</style>
<g id="Layer_2_1_">
	<g id="Layer_1-2">
		<path class="st0" d="M0,0h512v347.5c0,90.9-73.6,164.5-164.5,164.5H0V0z"/>
		<path class="st1" d="M385.1,167.3l-28.3,109.1h23.6c11.4,0,21.4-7.7,24.2-18.8l23.5-90.3H385.1z"/>
		<path class="st2" d="M371,291.8c14.6,0,26.5,11.8,26.5,26.5s-11.8,26.5-26.5,26.5s-26.5-11.8-26.5-26.5S356.4,291.8,371,291.8
			L371,291.8z"/>
		<path class="st1" d="M226,167.3l22.4,84.3c1,3.8,2,7.8,2.9,11.9s1.8,8.8,2.7,14.2c1.2-6.3,2.2-11.5,3.1-15.6
			c0.8-4.1,1.7-7.6,2.5-10.5l20.8-84.3h48.8l-46.6,165.5c-2,7-8.3,11.8-15.6,11.8h-32.6l-22-75.7c-0.8-2.7-2.1-7.9-4-15.6
			c-0.8-3.5-1.5-6.2-1.9-8.1c-0.4,1.7-1,4.1-1.7,7.1c-1.9,7.8-3.3,13.4-4.2,16.6l-18.1,63.9c-2,7-8.3,11.8-15.6,11.8h-32.7
			L83.9,167.4h48.8l20.4,84.8c1,4.4,1.9,8.7,2.9,13.1s1.8,8.8,2.6,13.4c0.7-3.4,1.5-6.9,2.4-10.7c0.8-3.7,2.1-9,3.8-15.9l22.3-84.9
			L226,167.3z"/>
	</g>
</g>
<rect y="0.5" class="st3" width="512" height="512"/>
<g>
	<g>
		<path class="st4" d="M412.6,167.7l-28.4,109.1h23.6c11.4,0,21.4-7.7,24.3-18.8l23.6-90.3H412.6z"/>
		<path class="st5" d="M398.4,292.2c14.6,0,26.5,11.9,26.5,26.5c0,14.6-11.9,26.5-26.5,26.5c-14.6,0-26.5-11.9-26.5-26.5
			C371.9,304.1,383.7,292.2,398.4,292.2z"/>
		<polygon class="st4" points="385.4,169.9 385.4,169.9 388.7,179.1 390.2,179.1 393.5,169.9 393.5,169.9 393.5,179.1 396,179.1 
			396,167.7 392,167.7 389.4,174.5 386.9,167.7 382.9,167.7 382.9,179.1 385.4,179.1 		"/>
		<polygon class="st4" points="375.3,179.1 378.1,179.1 378.1,169.9 381.5,169.9 381.5,167.7 371.9,167.7 371.9,169.9 375.3,169.9 
					"/>
	</g>
	<g>
		<path class="st4" d="M56.4,167.7h65.5c49.4,0,90.2,38.8,90.2,88.8s-41,88.8-90.2,88.8H56.4V167.7z M102.5,306.2h10.4
			c27.5,0,51.1-15.1,51.1-49.7c0-31.8-21-49.7-50.6-49.7h-10.8V306.2z"/>
		<path class="st4" d="M358.1,228.8c-8.9-12.1-23.5-18.6-38.5-18.6c-26.8,0-44.9,20.6-44.9,46.7c0,26.6,18.3,45.8,45.6,45.8
			c14.3,0,28.6-6.9,37.8-17.9v52.5c-14.5,4.5-25,7.8-38.7,7.8c-23.5,0-45.8-8.9-63.3-24.8c-18.6-16.8-27.1-38.7-27.1-63.7
			c0-23,8.7-45.2,24.8-61.7c16.5-17,40.5-27.3,64.2-27.3c14.1,0,27.1,3.1,40,8.5V228.8z"/>
	</g>
</g>
</svg>
