<?xml version="1.0" encoding="utf-8"?>
<!-- Generator: Adobe Illustrator 24.1.1, SVG Export Plug-In . SVG Version: 6.00 Build 0)  -->
<svg version="1.1" id="Layer_1" xmlns="http://www.w3.org/2000/svg" xmlns:xlink="http://www.w3.org/1999/xlink" x="0px" y="0px"
	 viewBox="0 0 941.6 99" style="enable-background:new 0 0 941.6 99;" xml:space="preserve">
<style type="text/css">
	.st0{fill:#17245F;}
	.st1{fill-rule:evenodd;clip-rule:evenodd;fill:#17245F;}
</style>
<g>
	<g>
		<path class="st0" d="M86.4,6.9h33.1c25,0,45.6,19.6,45.6,44.9s-20.7,44.9-45.6,44.9H86.4V6.9z M109.7,76.9h5.2
			c13.9,0,25.8-7.6,25.8-25.1c0-16.1-10.6-25.1-25.6-25.1h-5.5V76.9z"/>
		<path class="st0" d="M197,45.6h0.2c4.2-7.5,11.3-10.8,19.8-10.8h4.2v20.8c-3-1.7-5.8-2-9.2-2c-12,0-15,8-15,18.4v24.6h-21.7v-61
			H197V45.6z"/>
		<path class="st0" d="M432.6,45.6h0.2c4.2-7.5,11.3-10.8,19.8-10.8h4.2v20.8c-3-1.7-5.8-2-9.2-2c-12,0-15,8-15,18.4v24.6h-21.7v-61
			h21.7V45.6z"/>
		<path class="st0" d="M252.2,12.1c0,6.7-5.5,12.1-12.1,12.1c-6.7,0-12.1-5.5-12.1-12.1C228,5.5,233.4,0,240.1,0
			C246.8,0,252.2,5.5,252.2,12.1z M250.9,96.6h-21.7v-61h21.7V96.6z"/>
		<path class="st0" d="M295.2,66.9l14.5-31.3H334l-31.9,61h-13.8l-32-61h24.3L295.2,66.9z"/>
		<path class="st0" d="M402,69.7h-45.6c0,8.8,4.6,13.6,13.6,13.6c4.6,0,8-1.5,10.4-5.6h20.8c-1.7,7.1-5.9,12.4-11.5,15.8
			c-5.6,3.5-12.5,5.1-19.5,5.1c-20.2,0-35.3-11.4-35.3-32.5c0-20.3,13.9-32.6,33.8-32.6c21.2,0,33.4,13.1,33.4,33.9V69.7z
			 M381.9,57.2c-1.1-5.8-6.4-9.6-12.3-9.6c-6.3,0-11.5,3.3-12.8,9.6H381.9z"/>
		<path class="st0" d="M504,51.3c-3.3-1.8-8-3-11.7-3c-2.5,0-6.8,1.1-6.8,4.2c0,4.2,6.8,4.8,9.8,5.4c10.1,2,17.7,6.8,17.7,18.1
			c0,16.1-14.6,22.7-28.8,22.7c-8.7,0-17.3-2.5-24.6-7l7.9-15.1c4.4,3.1,11.8,6.2,17.1,6.2c2.7,0,6.8-1.3,6.8-4.6
			c0-4.8-6.8-5-13.6-6.8c-6.8-1.8-13.6-5.1-13.6-16.1c0-15,13.6-21.7,26.9-21.7c6.9,0,13.8,1.1,20.1,3.9L504,51.3z"/>
		<path class="st0" d="M597.8,37c-4.8-6.4-12.5-9.9-20.5-9.9c-14.3,0-23.9,10.9-23.9,24.9c0,14.2,9.8,24.4,24.3,24.4
			c7.6,0,15.2-3.7,20.1-9.5v28c-7.7,2.4-13.3,4.2-20.6,4.2c-12.5,0-24.4-4.8-33.7-13.2c-9.9-8.9-14.4-20.6-14.4-33.9
			c0-12.3,4.6-24,13.2-32.8c8.8-9,21.5-14.5,34.1-14.5c7.5,0,14.4,1.7,21.3,4.5V37z"/>
		<path class="st0" d="M633.4,96.6h-21.7V4.5h21.7V96.6z"/>
		<path class="st0" d="M669,35.6v32.6c0,7.7,1.9,13.2,10.8,13.2c8.9,0,10.8-5.5,10.8-13.2V35.6h21.7v36.8
			c0,20.1-14.2,26.3-32.5,26.3c-18.3,0-32.5-6.2-32.5-26.3V35.6H669z"/>
		<path class="st0" d="M725.4,4.5H747v37c4.6-5.4,11.9-8,18.9-8c18.1,0,30.6,15,30.6,32.5c0,17.6-12.6,32.6-30.8,32.6
			c-7.1,0-14.5-2.7-18.4-8.8H747v6.8h-21.7V4.5z M746.3,66.2c0,7.7,5.1,13.7,13.9,13.7c8.8,0,13.9-5.9,13.9-13.7
			c0-7.5-5.1-13.8-13.9-13.8C751.4,52.4,746.3,58.7,746.3,66.2z"/>
	</g>
	<g>
		<path class="st0" d="M831.9,2.6l-15.4,59.2h12.8c6.2,0,11.6-4.2,13.2-10.2l12.8-49H831.9z"/>
		<path class="st1" d="M824.1,70.2c7.9,0,14.4,6.5,14.4,14.4c0,7.9-6.5,14.4-14.4,14.4c-7.9,0-14.4-6.5-14.4-14.4
			C809.7,76.6,816.2,70.2,824.1,70.2z"/>
		<polygon class="st0" points="817.1,3.8 817.1,3.8 818.9,8.7 819.7,8.7 821.5,3.8 821.5,3.8 821.5,8.7 822.8,8.7 822.8,2.6 
			820.7,2.6 819.3,6.2 817.9,2.6 815.7,2.6 815.7,8.7 817.1,8.7 		"/>
		<polygon class="st0" points="811.6,8.7 813.1,8.7 813.1,3.8 815,3.8 815,2.6 809.7,2.6 809.7,3.8 811.6,3.8 		"/>
	</g>
</g>
</svg>
