<?xml version="1.0" encoding="utf-8"?>
<!-- Generator: Adobe Illustrator 24.1.1, SVG Export Plug-In . SVG Version: 6.00 Build 0)  -->
<svg version="1.1" id="Layer_1" xmlns="http://www.w3.org/2000/svg" xmlns:xlink="http://www.w3.org/1999/xlink" x="0px" y="0px"
	 viewBox="0 0 251 177.6" style="enable-background:new 0 0 251 177.6;" xml:space="preserve">
<style type="text/css">
	.st0{fill:#FFFFFF;}
	.st1{fill-rule:evenodd;clip-rule:evenodd;fill:#FFFFFF;}
</style>
<g id="Layer_2_1_">
	<g id="Layer_1-2">
		<path class="st0" d="M208,0l-28.3,109.1h23.6c11.4,0,21.4-7.7,24.3-18.8L251,0H208z"/>
		<path class="st1" d="M193.9,124.5c14.6,0,26.5,11.8,26.5,26.5c0,14.6-11.8,26.5-26.5,26.5c-14.6,0-26.5-11.8-26.5-26.5
			c0,0,0,0,0,0C167.4,136.4,179.2,124.6,193.9,124.5z"/>
		<path class="st0" d="M147.3,177.1H90L46.5,109H46v56.2c0,6.6-5.3,11.9-11.9,11.9H0V0h68.8c35,0,61.5,16.7,61.5,54.5
			c0,24.4-13.6,45.6-38.8,50L147.3,177.1z M46,79.4h4.5c15,0,31.9-2.8,31.9-22.1S65.5,35.2,50.5,35.2H46V79.4z"/>
	</g>
</g>
</svg>
