<svg xmlns="http://www.w3.org/2000/svg" viewBox="0 0 512 512"><defs><style>.cls-1{fill:#06df70;}.cls-2,.cls-3{fill:#fff;}.cls-3{fill-rule:evenodd;}</style></defs><g id="Layer_2" data-name="Layer 2"><g id="Layer_1-2" data-name="Layer 1"><rect class="cls-1" width="512" height="512"/><path class="cls-2" d="M338.48,167.25l-28.3,109.09,23.61,0A25.06,25.06,0,0,0,358,257.51l23.47-90.29Z"/><path class="cls-3" d="M324.36,291.76a26.51,26.51,0,1,1-26.49,26.53A26.51,26.51,0,0,1,324.36,291.76Z"/><path class="cls-2" d="M277.76,344.31H220.45L177,276.2h-.47v56.21a11.9,11.9,0,0,1-11.9,11.9H130.5V167.22h68.81c35,0,61.54,16.67,61.54,54.49,0,24.42-13.63,45.56-38.76,50ZM176.53,246.6H181c15,0,31.94-2.82,31.94-22.08S196,202.45,181,202.45h-4.46Z"/></g></g></svg>