<svg xmlns="http://www.w3.org/2000/svg" viewBox="0 0 512 512"><defs><style>.cls-1{fill:#17245f;}.cls-2,.cls-3{fill:#fff;}.cls-3{fill-rule:evenodd;}</style></defs><g id="Layer_2" data-name="Layer 2"><g id="Layer_1-2" data-name="Layer 1"><rect class="cls-1" width="512" height="512"/><path class="cls-2" d="M434.6,177.92l-24.8,95.56h20.68A22,22,0,0,0,451.72,257l20.56-79.09Z"/><path class="cls-3" d="M422.22,287A23.23,23.23,0,1,1,399,310.23,23.23,23.23,0,0,1,422.22,287Z"/><path class="cls-2" d="M164.2,178l19.59,73.85q1.38,5,2.55,10.39t2.46,12.42q1.57-8.28,2.69-13.64t2.17-9.18L211.85,178l42.77,0L213.73,323a14.23,14.23,0,0,1-13.67,10.36l-28.51,0-19.27-66.31q-1.07-3.51-3.51-13.69-1.07-4.56-1.71-7.11-.52,2.24-1.48,6.27-2.43,10.29-3.7,14.54l-15.9,56a14.22,14.22,0,0,1-13.67,10.33l-28.63,0-44-155.32,42.76,0,17.9,74.27q1.28,5.73,2.5,11.46t2.29,11.78c.63-3,1.32-6.09,2.06-9.34s1.85-7.89,3.33-13.91L130,178Z"/><path class="cls-2" d="M286.8,307l-6.4,16.13a17.42,17.42,0,0,1-16.19,11H233L293,178h44.3l49.92,132.53a17.41,17.41,0,0,1-16.29,23.55h-18.1L342.69,307Zm28.36-80.73h-.41L298,275.94h33.74Z"/></g></g></svg>