<svg xmlns="http://www.w3.org/2000/svg" viewBox="0 0 432.57 156.22"><defs><style>.cls-1,.cls-2{fill:#fff;}.cls-2{fill-rule:evenodd;}</style></defs><g id="Layer_2" data-name="Layer 2"><g id="Layer_1-2" data-name="Layer 1"><path class="cls-1" d="M394.88,0l-24.8,95.56h20.69A21.94,21.94,0,0,0,412,79.1L432.57,0Z"/><path class="cls-2" d="M382.51,109.1a23.23,23.23,0,1,1-23.21,23.24A23.23,23.23,0,0,1,382.51,109.1Z"/><path class="cls-1" d="M124.48.12,144.07,74q1.38,5,2.56,10.4t2.45,12.41q1.59-8.28,2.69-13.64c.74-3.57,1.47-6.63,2.17-9.18L172.13.08l42.77,0L174,145.1a14.22,14.22,0,0,1-13.67,10.36l-28.51,0L112.57,89.17q-1.06-3.49-3.52-13.69-1.06-4.56-1.7-7.11c-.35,1.49-.85,3.58-1.48,6.27q-2.43,10.29-3.7,14.54l-15.91,56A14.2,14.2,0,0,1,72.6,155.53l-28.64,0L0,.23l42.77,0L60.66,74.46q1.28,5.73,2.5,11.46T65.45,97.7c.64-3,1.33-6.09,2.07-9.34s1.85-7.89,3.33-13.91L90.31.15Z"/><path class="cls-1" d="M247.08,129.1l-6.4,16.13a17.4,17.4,0,0,1-16.18,11H193.26L253.29.14h44.3l49.93,132.53a17.42,17.42,0,0,1-16.3,23.55h-18.1L303,129.1Zm28.36-80.73H275L258.26,98.05H292Z"/></g></g></svg>