<svg xmlns="http://www.w3.org/2000/svg" viewBox="0 0 344.27 177.57"><defs><style>.cls-1,.cls-2{fill:#fff;}.cls-2{fill-rule:evenodd;}</style></defs><g id="Layer_2" data-name="Layer 2"><g id="Layer_1-2" data-name="Layer 1"><path class="cls-1" d="M301.25,0,272.94,109.12l23.61,0A25.05,25.05,0,0,0,320.8,90.29L344.27,0Z"/><path class="cls-2" d="M287.12,124.54a26.52,26.52,0,1,1-26.49,26.53A26.53,26.53,0,0,1,287.12,124.54Z"/><path class="cls-1" d="M142.1.09l22.36,84.29q1.59,5.7,2.92,11.87t2.8,14.18Q172,101,173.26,94.86t2.47-10.48L196.5,0l48.82,0L198.64,165.58A16.23,16.23,0,0,1,183,177.41l-32.55,0-22-75.7q-1.22-4-4-15.63-1.21-5.2-1.95-8.11-.6,2.55-1.69,7.15-2.77,11.75-4.22,16.6L98.47,165.69a16.22,16.22,0,0,1-15.6,11.8l-32.69,0L0,.21l48.82,0L69.24,85Q70.71,91.49,72.1,98t2.62,13.45q1.08-5.1,2.35-10.67t3.8-15.87L103.09.12Z"/></g></g></svg>