<svg xmlns="http://www.w3.org/2000/svg" viewBox="0 0 512 512"><defs><style>.cls-1{fill:#008cff;}.cls-2,.cls-3{fill:#fff;}.cls-3{fill-rule:evenodd;}</style></defs><g id="Layer_2" data-name="Layer 2"><g id="Layer_1-2" data-name="Layer 1"><rect class="cls-1" width="512" height="512"/><path class="cls-2" d="M385.12,167.25,356.81,276.34l23.61,0a25.05,25.05,0,0,0,24.24-18.81l23.48-90.29Z"/><path class="cls-3" d="M371,291.76a26.51,26.51,0,1,1-26.49,26.53A26.51,26.51,0,0,1,371,291.76Z"/><path class="cls-2" d="M226,167.3l22.36,84.3q1.57,5.7,2.92,11.87T254,277.64q1.82-9.45,3.08-15.57t2.47-10.48l20.77-84.33,48.82,0L282.51,332.8a16.22,16.22,0,0,1-15.61,11.82l-32.55,0-22-75.69q-1.22-4-4-15.63c-.81-3.47-1.46-6.18-1.94-8.11-.41,1.69-1,4.08-1.69,7.15q-2.78,11.75-4.23,16.6l-18.15,63.94a16.23,16.23,0,0,1-15.6,11.8l-32.69,0L83.86,167.42l48.83,0,20.42,84.79q1.45,6.54,2.86,13.08t2.61,13.44q1.09-5.08,2.36-10.66t3.8-15.87L187,167.34Z"/></g></g></svg>